# Blender v2.78 (sub 0) OBJ File: '19.blend'
# www.blender.org
mtllib Saw_01.mtl
o Saw_Cube.040
v -0.129209 0.026138 4.797443
v -0.129209 5.205057 4.797443
v -0.129209 1.979087 -9.416733
v -0.129209 5.187278 -9.416733
v 0.129209 0.026138 4.797443
v 0.129209 5.205057 4.797443
v 0.129209 1.979087 -9.416733
v 0.129209 5.187278 -9.416733
v -0.129209 1.700094 -7.386134
v -0.129209 1.421102 -5.355539
v -0.129209 1.142109 -3.324943
v -0.129209 0.863116 -1.294346
v -0.129209 0.584124 0.736251
v -0.129209 0.305131 2.766847
v -0.129209 5.202517 2.766847
v -0.129209 5.199977 0.736251
v -0.129209 5.197437 -1.294346
v -0.129209 5.194897 -3.324943
v -0.129209 5.192357 -5.355539
v -0.129209 5.189817 -7.386134
v 0.129209 0.305131 2.766847
v 0.129209 0.584124 0.736251
v 0.129209 0.863116 -1.294346
v 0.129209 1.142109 -3.324943
v 0.129209 1.421102 -5.355539
v 0.129209 1.700094 -7.386134
v 0.129209 5.189817 -7.386134
v 0.129209 5.192357 -5.355539
v 0.129209 5.194897 -3.324943
v 0.129209 5.197437 -1.294346
v 0.129209 5.199977 0.736251
v 0.129209 5.202517 2.766847
v -0.129209 5.188548 -8.401436
v 0.129209 2.490394 -8.401436
v -0.129209 2.490394 -8.401436
v 0.129209 5.188548 -8.401436
v -0.129209 2.211402 -6.370837
v -0.129209 5.191087 -6.370837
v 0.129209 2.211402 -6.370837
v 0.129209 5.191087 -6.370837
v -0.129209 1.932409 -4.340241
v -0.129209 5.193627 -4.340241
v 0.129209 1.932409 -4.340241
v 0.129209 5.193627 -4.340241
v -0.129209 1.653416 -2.309644
v -0.129209 5.196168 -2.309644
v 0.129209 1.653416 -2.309644
v 0.129209 5.196168 -2.309644
v -0.129209 1.374424 -0.279047
v -0.129209 5.198707 -0.279047
v 0.129209 1.374424 -0.279047
v 0.129209 5.198707 -0.279047
v -0.129209 1.095431 1.751549
v -0.129209 5.201247 1.751549
v 0.129209 1.095431 1.751549
v 0.129209 5.201247 1.751549
v -0.129209 0.816439 3.782146
v 0.129209 5.203786 3.782146
v -0.129209 5.203786 3.782146
v 0.129209 0.816439 3.782146
v -0.129209 5.187278 -9.924499
v -0.129209 2.312135 -9.924499
v 0.129209 2.312135 -9.924499
v 0.129209 5.187278 -9.924499
v -0.425517 0.468394 8.841037
v -0.425517 5.318989 8.470396
v -0.425517 -0.013117 8.841037
v -0.425517 5.318989 4.196571
v 0.425517 0.468394 8.841037
v 0.425517 5.318989 8.470396
v -0.425517 -0.013117 6.560682
v 0.425517 5.318989 4.196571
v -0.425517 0.468394 6.915897
v -0.425517 5.318989 5.384621
v 0.425517 0.468394 6.915897
v 0.425517 5.318989 5.384621
v -0.425517 3.007723 8.582356
v -0.425517 2.896104 3.689554
v 0.425517 2.896104 3.689554
v 0.425517 3.007723 8.582356
v 0.425517 3.747330 6.385606
v -0.425517 3.747330 6.385606
v 0.425517 -0.013117 8.841037
v 0.425517 -0.013117 6.560681
v 0.425516 -0.013117 4.606609
v -0.425519 -0.013117 4.606609
v 0.425516 0.468394 4.489836
v -0.425519 0.468394 4.489836
v -0.425517 5.318989 4.790596
v 0.425517 5.318989 4.790596
v 0.425517 3.934119 5.197292
v -0.425517 3.934119 5.197292
v -0.425518 -0.013117 5.496503
v 0.425516 -0.013117 5.496503
v 0.425516 0.468394 5.801766
v -0.425518 0.468394 5.801767
v -0.425517 4.564829 8.055982
v -0.425517 4.564829 4.020419
v 0.425517 4.564829 4.020419
v 0.425517 4.564829 8.055982
v 0.425517 4.564829 5.854219
v -0.425517 4.564829 5.854219
v 0.425517 4.564829 4.908542
v -0.425517 4.564829 4.908541
v -0.000000 3.391924 6.321930
v -0.000000 0.823800 6.743460
v -0.000000 3.578713 5.377337
v -0.000001 0.823800 5.857835
v -0.463482 3.202852 4.172247
v -0.463482 3.383876 4.247230
v -0.463482 3.458858 4.428253
v -0.463482 3.383876 4.609278
v -0.463482 3.202852 4.684260
v -0.463482 3.021828 4.609278
v -0.463482 2.946845 4.428253
v -0.463482 3.021828 4.247230
v -0.463482 3.202852 4.428253
v -0.143298 2.946845 4.428253
v -0.143298 3.021828 4.609278
v -0.143298 3.202852 4.684260
v -0.143298 3.383876 4.609278
v -0.143298 3.458858 4.428253
v -0.143298 3.202852 4.172247
v -0.143298 3.383876 4.247230
v -0.143298 3.021828 4.247230
v -0.143298 3.202852 4.428253
v -0.463482 3.968327 7.058919
v -0.463482 4.149351 7.133901
v -0.463482 4.224334 7.314926
v -0.463482 4.149351 7.495949
v -0.463482 3.968327 7.570931
v -0.463482 3.787303 7.495949
v -0.463482 3.712320 7.314926
v -0.463482 3.787303 7.133901
v -0.463482 3.968327 7.314926
v -0.143298 3.712320 7.314926
v -0.143298 3.787303 7.495949
v -0.143298 3.968327 7.570931
v -0.143298 4.149351 7.495949
v -0.143298 4.224334 7.314926
v -0.143298 3.968327 7.058919
v -0.143298 4.149351 7.133901
v -0.143298 3.787303 7.133901
v -0.143298 3.968327 7.314926
v -0.463482 0.777309 7.603052
v -0.463482 0.958333 7.678034
v -0.463482 1.033316 7.859057
v -0.463482 0.958333 8.040082
v -0.463482 0.777309 8.115064
v -0.463482 0.596285 8.040082
v -0.463482 0.521303 7.859057
v -0.463482 0.596285 7.678034
v -0.463482 0.777309 7.859057
v -0.143298 0.521303 7.859057
v -0.143298 0.596285 8.040082
v -0.143298 0.777309 8.115064
v -0.143298 0.958333 8.040082
v -0.143298 1.033316 7.859057
v -0.143298 0.777309 7.603052
v -0.143298 0.958333 7.678034
v -0.143298 0.596285 7.678034
v -0.143298 0.777309 7.859057
v 0.463481 3.202852 4.172247
v 0.463481 3.383876 4.247230
v 0.463481 3.458858 4.428253
v 0.463481 3.383876 4.609278
v 0.463481 3.202852 4.684260
v 0.463481 3.021828 4.609278
v 0.463481 2.946845 4.428253
v 0.463481 3.021828 4.247230
v 0.463481 3.202852 4.428253
v 0.143298 2.946845 4.428253
v 0.143298 3.021828 4.609278
v 0.143298 3.202852 4.684260
v 0.143298 3.383876 4.609278
v 0.143298 3.458858 4.428253
v 0.143298 3.202852 4.172247
v 0.143298 3.383876 4.247230
v 0.143298 3.021828 4.247230
v 0.143298 3.202852 4.428253
v 0.463481 3.968327 7.058919
v 0.463481 4.149351 7.133901
v 0.463481 4.224334 7.314926
v 0.463481 4.149351 7.495949
v 0.463481 3.968327 7.570931
v 0.463481 3.787303 7.495949
v 0.463481 3.712320 7.314926
v 0.463481 3.787303 7.133901
v 0.463481 3.968327 7.314926
v 0.143298 3.712320 7.314926
v 0.143298 3.787303 7.495949
v 0.143298 3.968327 7.570931
v 0.143298 4.149351 7.495949
v 0.143298 4.224334 7.314926
v 0.143298 3.968327 7.058919
v 0.143298 4.149351 7.133901
v 0.143298 3.787303 7.133901
v 0.143298 3.968327 7.314926
v 0.463481 0.777309 7.603052
v 0.463481 0.958333 7.678034
v 0.463481 1.033316 7.859057
v 0.463481 0.958333 8.040082
v 0.463481 0.777309 8.115064
v 0.463481 0.596285 8.040082
v 0.463481 0.521303 7.859057
v 0.463481 0.596285 7.678034
v 0.463481 0.777309 7.859057
v 0.143298 0.521303 7.859057
v 0.143298 0.596285 8.040082
v 0.143298 0.777309 8.115064
v 0.143298 0.958333 8.040082
v 0.143298 1.033316 7.859057
v 0.143298 0.777309 7.603052
v 0.143298 0.958333 7.678034
v 0.143298 0.596285 7.678034
v 0.143298 0.777309 7.859057
vn -1.0000 0.0000 0.0000
vn 0.0000 0.2275 -0.9738
vn 1.0000 0.0000 0.0000
vn 0.0000 -0.4816 0.8764
vn 0.0000 1.0000 0.0000
vn 0.2641 -0.1550 -0.9520
vn 0.0000 0.1013 0.9949
vn 0.0000 -1.0000 0.0000
vn 0.0000 0.0000 1.0000
vn 0.0000 -0.2357 -0.9718
vn 0.0000 -0.3131 -0.9497
vn -0.6243 -0.7695 -0.1348
vn 0.6410 0.7675 -0.0000
vn -0.2636 0.1657 0.9503
vn 0.0000 0.3202 0.9473
vn 0.0000 0.1945 -0.9809
vn -0.6410 0.7675 0.0000
vn 0.6243 -0.7695 -0.1348
vn -0.2641 -0.1550 -0.9520
vn 0.2636 0.1657 0.9503
vn 0.0000 -0.7891 -0.6142
vn 0.0000 1.0000 -0.0013
vn 0.0000 1.0000 -0.0012
vn 0.0000 -0.8931 0.4498
vn 0.0000 0.0000 -1.0000
vn 0.0000 -0.8362 -0.5485
vn 0.0000 0.9239 -0.3827
vn 0.0000 -0.9239 -0.3827
vn 0.0000 -0.3827 0.9239
vn 0.0000 0.9239 0.3827
vn 0.0000 0.3827 -0.9239
vn 0.0000 -0.3827 -0.9239
vn 0.0000 -0.9239 0.3827
vn 0.0000 0.3827 0.9239
usemtl 795548
s off
f 104//1 89//1 68//1 98//1
f 98//2 68//2 72//2 99//2
f 101//3 76//3 70//3 100//3
f 100//4 70//4 66//4 97//4
f 75//3 69//3 83//3 84//3
f 76//5 74//5 66//5 70//5
f 90//5 89//5 74//5 76//5
f 103//3 90//3 76//3 101//3
f 97//1 66//1 74//1 102//1
f 65//1 77//1 82//1 73//1
f 105//6 81//6 75//6 106//6
f 69//7 80//7 77//7 65//7
f 75//3 81//3 80//3 69//3
f 71//8 84//8 83//8 67//8
f 69//9 65//9 67//9 83//9
f 94//8 93//8 86//8 85//8
f 65//1 73//1 71//1 67//1
f 88//10 87//10 85//10 86//10
f 78//11 79//11 87//11 88//11
f 93//1 96//1 88//1 86//1
f 95//3 94//3 85//3 87//3
f 99//3 72//3 90//3 103//3
f 105//12 82//12 92//12 107//12
f 72//5 68//5 89//5 90//5
f 102//1 74//1 89//1 104//1
f 75//3 84//3 94//3 95//3
f 71//1 73//1 96//1 93//1
f 106//13 75//13 95//13 108//13
f 84//8 71//8 93//8 94//8
f 107//14 92//14 96//14 108//14
f 82//1 102//1 104//1 92//1
f 79//3 99//3 103//3 91//3
f 77//1 97//1 102//1 82//1
f 91//3 103//3 101//3 81//3
f 80//15 100//15 97//15 77//15
f 81//3 101//3 100//3 80//3
f 78//16 98//16 99//16 79//16
f 92//1 104//1 98//1 78//1
f 73//17 106//17 108//17 96//17
f 81//18 105//18 107//18 91//18
f 82//19 105//19 106//19 73//19
f 87//3 79//3 91//3 95//3
f 96//1 92//1 78//1 88//1
f 95//20 91//20 107//20 108//20
usemtl 455A64
f 35//1 33//1 4//1 3//1
f 8//3 7//3 63//3 64//3
f 60//3 58//3 6//3 5//3
f 5//9 6//9 2//9 1//9
f 57//21 60//21 5//21 1//21
f 58//22 59//22 2//22 6//22
f 36//23 33//23 20//23 27//23
f 40//22 38//22 19//22 28//22
f 44//22 42//22 18//22 29//22
f 48//22 46//22 17//22 30//22
f 52//22 50//22 16//22 31//22
f 56//22 54//22 15//22 32//22
f 35//21 34//21 26//21 9//21
f 37//21 39//21 25//21 10//21
f 41//21 43//21 24//21 11//21
f 45//21 47//21 23//21 12//21
f 49//21 51//21 22//21 13//21
f 53//21 55//21 21//21 14//21
f 34//3 36//3 27//3 26//3
f 39//3 40//3 28//3 25//3
f 43//3 44//3 29//3 24//3
f 47//3 48//3 30//3 23//3
f 51//3 52//3 31//3 22//3
f 55//3 56//3 32//3 21//3
f 57//1 59//1 15//1 14//1
f 53//1 54//1 16//1 13//1
f 49//1 50//1 17//1 12//1
f 45//1 46//1 18//1 11//1
f 41//1 42//1 19//1 10//1
f 37//1 38//1 20//1 9//1
f 7//3 8//3 36//3 34//3
f 3//24 7//24 34//24 35//24
f 8//22 4//22 33//22 36//22
f 9//1 20//1 33//1 35//1
f 10//1 19//1 38//1 37//1
f 26//3 27//3 40//3 39//3
f 9//24 26//24 39//24 37//24
f 27//22 20//22 38//22 40//22
f 11//1 18//1 42//1 41//1
f 25//3 28//3 44//3 43//3
f 10//24 25//24 43//24 41//24
f 28//22 19//22 42//22 44//22
f 12//1 17//1 46//1 45//1
f 24//3 29//3 48//3 47//3
f 11//24 24//24 47//24 45//24
f 29//22 18//22 46//22 48//22
f 13//1 16//1 50//1 49//1
f 23//3 30//3 52//3 51//3
f 12//24 23//24 51//24 49//24
f 30//22 17//22 50//22 52//22
f 14//1 15//1 54//1 53//1
f 22//3 31//3 56//3 55//3
f 13//24 22//24 55//24 53//24
f 31//22 16//22 54//22 56//22
f 1//1 2//1 59//1 57//1
f 32//22 15//22 59//22 58//22
f 14//24 21//24 60//24 57//24
f 21//3 32//3 58//3 60//3
f 62//25 61//25 64//25 63//25
f 7//26 3//26 62//26 63//26
f 4//5 8//5 64//5 61//5
f 3//1 4//1 61//1 62//1
f 110//1 117//1 111//1
f 115//1 117//1 116//1
f 113//1 117//1 114//1
f 111//1 117//1 112//1
f 109//1 117//1 110//1
f 116//1 117//1 109//1
f 114//1 117//1 115//1
f 112//1 117//1 113//1
f 124//3 122//3 126//3
f 118//3 125//3 126//3
f 120//3 119//3 126//3
f 122//3 121//3 126//3
f 123//3 124//3 126//3
f 125//3 123//3 126//3
f 119//3 118//3 126//3
f 121//3 120//3 126//3
f 110//27 111//27 122//27 124//27
f 115//28 116//28 125//28 118//28
f 113//29 114//29 119//29 120//29
f 111//30 112//30 121//30 122//30
f 109//31 110//31 124//31 123//31
f 116//32 109//32 123//32 125//32
f 114//33 115//33 118//33 119//33
f 112//34 113//34 120//34 121//34
f 128//1 135//1 129//1
f 133//1 135//1 134//1
f 131//1 135//1 132//1
f 129//1 135//1 130//1
f 127//1 135//1 128//1
f 134//1 135//1 127//1
f 132//1 135//1 133//1
f 130//1 135//1 131//1
f 142//3 140//3 144//3
f 136//3 143//3 144//3
f 138//3 137//3 144//3
f 140//3 139//3 144//3
f 141//3 142//3 144//3
f 143//3 141//3 144//3
f 137//3 136//3 144//3
f 139//3 138//3 144//3
f 128//27 129//27 140//27 142//27
f 133//28 134//28 143//28 136//28
f 131//29 132//29 137//29 138//29
f 129//30 130//30 139//30 140//30
f 127//31 128//31 142//31 141//31
f 134//32 127//32 141//32 143//32
f 132//33 133//33 136//33 137//33
f 130//34 131//34 138//34 139//34
f 146//1 153//1 147//1
f 151//1 153//1 152//1
f 149//1 153//1 150//1
f 147//1 153//1 148//1
f 145//1 153//1 146//1
f 152//1 153//1 145//1
f 150//1 153//1 151//1
f 148//1 153//1 149//1
f 160//3 158//3 162//3
f 154//3 161//3 162//3
f 156//3 155//3 162//3
f 158//3 157//3 162//3
f 159//3 160//3 162//3
f 161//3 159//3 162//3
f 155//3 154//3 162//3
f 157//3 156//3 162//3
f 146//27 147//27 158//27 160//27
f 151//28 152//28 161//28 154//28
f 149//29 150//29 155//29 156//29
f 147//30 148//30 157//30 158//30
f 145//31 146//31 160//31 159//31
f 152//32 145//32 159//32 161//32
f 150//33 151//33 154//33 155//33
f 148//34 149//34 156//34 157//34
f 164//3 165//3 171//3
f 169//3 170//3 171//3
f 167//3 168//3 171//3
f 165//3 166//3 171//3
f 163//3 164//3 171//3
f 170//3 163//3 171//3
f 168//3 169//3 171//3
f 166//3 167//3 171//3
f 178//1 180//1 176//1
f 172//1 180//1 179//1
f 174//1 180//1 173//1
f 176//1 180//1 175//1
f 177//1 180//1 178//1
f 179//1 180//1 177//1
f 173//1 180//1 172//1
f 175//1 180//1 174//1
f 164//27 178//27 176//27 165//27
f 169//28 172//28 179//28 170//28
f 167//29 174//29 173//29 168//29
f 165//30 176//30 175//30 166//30
f 163//31 177//31 178//31 164//31
f 170//32 179//32 177//32 163//32
f 168//33 173//33 172//33 169//33
f 166//34 175//34 174//34 167//34
f 182//3 183//3 189//3
f 187//3 188//3 189//3
f 185//3 186//3 189//3
f 183//3 184//3 189//3
f 181//3 182//3 189//3
f 188//3 181//3 189//3
f 186//3 187//3 189//3
f 184//3 185//3 189//3
f 196//1 198//1 194//1
f 190//1 198//1 197//1
f 192//1 198//1 191//1
f 194//1 198//1 193//1
f 195//1 198//1 196//1
f 197//1 198//1 195//1
f 191//1 198//1 190//1
f 193//1 198//1 192//1
f 182//27 196//27 194//27 183//27
f 187//28 190//28 197//28 188//28
f 185//29 192//29 191//29 186//29
f 183//30 194//30 193//30 184//30
f 181//31 195//31 196//31 182//31
f 188//32 197//32 195//32 181//32
f 186//33 191//33 190//33 187//33
f 184//34 193//34 192//34 185//34
f 200//3 201//3 207//3
f 205//3 206//3 207//3
f 203//3 204//3 207//3
f 201//3 202//3 207//3
f 199//3 200//3 207//3
f 206//3 199//3 207//3
f 204//3 205//3 207//3
f 202//3 203//3 207//3
f 214//1 216//1 212//1
f 208//1 216//1 215//1
f 210//1 216//1 209//1
f 212//1 216//1 211//1
f 213//1 216//1 214//1
f 215//1 216//1 213//1
f 209//1 216//1 208//1
f 211//1 216//1 210//1
f 200//27 214//27 212//27 201//27
f 205//28 208//28 215//28 206//28
f 203//29 210//29 209//29 204//29
f 201//30 212//30 211//30 202//30
f 199//31 213//31 214//31 200//31
f 206//32 215//32 213//32 199//32
f 204//33 209//33 208//33 205//33
f 202//34 211//34 210//34 203//34
